<svg width="1144" height="152" xmlns="http://www.w3.org/2000/svg" xmlns:xlink="http://www.w3.org/1999/xlink" overflow="hidden"><defs><clipPath id="clip0"><rect x="68" y="284" width="1144" height="152"/></clipPath><clipPath id="clip1"><rect x="68" y="285" width="1144" height="150"/></clipPath><clipPath id="clip2"><rect x="68" y="285" width="1145" height="150"/></clipPath><clipPath id="clip3"><rect x="68" y="285" width="1145" height="150"/></clipPath></defs><g clip-path="url(#clip0)" transform="translate(-68 -284)"><g clip-path="url(#clip1)"><g clip-path="url(#clip2)"><g clip-path="url(#clip3)"><path d="M977.346 59.1087 977.346 149.003 1006.08 149.003 1006.08 89.0736 1111.16 89.0736 1111.16 149.003 1139.9 149.003 1139.9 59.1087 977.346 59.1087M1002.8 29.9648 1113.62 29.9648C1129.22 27.0915 1140.31 13.1353 1143.59 0L972.831 0C976.115 13.1353 987.608 26.681 1002.8 29.9648M889.915 149.003C904.281 142.846 912.08 132.174 915.364 119.859L786.064 119.859 786.064 0.410477 756.92 0.410477 756.92 149.003 889.915 149.003M541.419 29.5544 644.039 29.5544C659.637 25.0391 672.362 13.1353 675.646 0.410477L513.096 0.410477 513.096 88.2526 646.091 88.2526 646.091 119.038 541.83 119.038C525.411 123.554 511.455 134.637 504.477 149.003L674.825 149.003 674.825 59.1087 541.83 59.1087 541.419 29.5544M288.565 29.9648 399.394 29.9648C414.992 27.0915 426.486 13.1353 429.359 0L258.19 0C261.474 13.1353 272.967 26.681 288.565 29.9648M288.565 88.6631 399.394 88.6631C414.992 85.7897 426.486 71.8335 429.359 58.6982L258.19 58.6982C261.474 71.8335 272.967 85.3793 288.565 88.6631M288.565 149.003 399.394 149.003C414.992 146.13 426.486 132.174 429.359 119.038L258.19 119.038C261.474 132.174 272.967 146.13 288.565 149.003" fill="#5E5E5E" fill-rule="nonzero" fill-opacity="1" transform="matrix(1 0 0 1.00551 68 285.088)"/><path d="M0 0.410477C3.28382 13.5457 14.7772 26.681 29.9648 29.9648L76.7592 29.9648 79.2221 30.7858 79.2221 148.593 108.366 148.593 108.366 30.7858 110.829 29.9648 157.623 29.9648C173.221 25.8601 184.304 13.5457 187.588 0.410477L187.588 0 0 0.410477" fill="#5E5E5E" fill-rule="nonzero" fill-opacity="1" transform="matrix(1 0 0 1.00551 68 285.088)"/></g></g></g></g></svg>